<svg xmlns="http://www.w3.org/2000/svg" xmlns:xlink="http://www.w3.org/1999/xlink" width="327.969" height="257.672" viewBox="0 0 327.969 257.672">
  <defs>
    <linearGradient id="linear-gradient" x1="0.346" y1="1" x2="0.346" gradientUnits="objectBoundingBox">
      <stop offset="0" stop-color="gray" stop-opacity="0.251"/>
      <stop offset="0.54" stop-color="gray" stop-opacity="0.122"/>
      <stop offset="1" stop-color="gray" stop-opacity="0.102"/>
    </linearGradient>
    <linearGradient id="linear-gradient-2" x1="0.5" y1="1" x2="0.5" y2="0" xlink:href="#linear-gradient"/>
  </defs>
  <g id="undraw_online_world_mc1t" transform="translate(0.008 -0.005)">
    <path id="Path_1631" data-name="Path 1631" d="M239.659,63.683c-11.743-1.408-22.726-5.734-33.81-9.392a302.148,302.148,0,0,0-37.65-9.729c-13.579-2.6-27.578-4.288-41.192-3.078S100.11,47.044,91.427,55c-14.71,13.494-13.469,33.948-8.611,51.976,5.766,21.39,15.734,42.534,32.052,60.751,11.6,12.949,26.15,24.159,40.574,35.287,8.154,6.279,16.383,12.6,25.908,17.54,8.86,4.587,18.642,7.877,28.356,11.119,10.372,3.466,20.769,6.95,31.478,9.6,34.182,8.456,70.165,8.192,105.349,7.439,12.382-.262,25.325-.693,35.713-5.529,8.094-3.781,13.863-9.906,18.233-16.437,5.718-8.557,9.329-18.768,5.268-28.312-5.986-14.077-26.5-22.37-33.334-36.233-8.753-17.789,8.248-36.592,3.437-55.108-2-7.7-7.644-14.666-13.623-21.16-14.263-15.482-33.221-29.585-58.7-27.524C281.954,60.148,262.278,66.4,239.659,63.683Z" transform="translate(-79.52 -41.08)" fill="#5c3cba" opacity="0.1"/>
    <path id="Path_1632" data-name="Path 1632" d="M399.607,85.35h98.616a9.767,9.767,0,0,1,9.767,9.736V311.013a9.767,9.767,0,0,1-9.767,9.736H399.607a9.767,9.767,0,0,1-9.767-9.736V95.082A9.767,9.767,0,0,1,399.607,85.35Z" transform="translate(-292.074 -71.399)" fill="url(#linear-gradient)"/>
    <rect id="Rectangle_23" data-name="Rectangle 23" width="116.348" height="232.695" rx="26.87" transform="translate(215.011 248.448) rotate(180)" fill="#4e5a86"/>
    <rect id="Rectangle_24" data-name="Rectangle 24" width="99.211" height="189.402" transform="translate(206.442 226.803) rotate(180)" fill="#fff"/>
    <circle id="Ellipse_1233" data-name="Ellipse 1233" cx="0.901" cy="0.901" r="0.901" transform="translate(167.66 25.675)" fill="#fff"/>
    <rect id="Rectangle_25" data-name="Rectangle 25" width="19.843" height="1.805" rx="0.903" transform="translate(164.049 27.477) rotate(180)" fill="#fff"/>
    <circle id="Ellipse_1234" data-name="Ellipse 1234" cx="6.314" cy="6.314" r="6.314" transform="translate(150.974 229.507)" fill="#fff"/>
    <ellipse id="Ellipse_1235" data-name="Ellipse 1235" cx="80.027" cy="15.438" rx="80.027" ry="15.438" transform="translate(72.085 226.8)" fill="#5c3cba" opacity="0.1"/>
    <rect id="Rectangle_26" data-name="Rectangle 26" width="76.561" height="102.396" transform="translate(118.557 66.747)" fill="#5c3cba" opacity="0.1"/>
    <path id="Path_1633" data-name="Path 1633" d="M532.428,309.685c-.189-.214-.381-.422-.58-.63,1.522-1.727,3.1-3.5,3.084-5.718-.016-2.7-2.41-4.77-3.3-7.322-1.216-3.466.473-7.19,1.166-10.8a20.252,20.252,0,0,0-4.392-16.68,5.813,5.813,0,0,0-2.568-1.963c-1.591-.5-3.286.2-4.943.4-5.479.674-10.463-4.045-15.967-3.623a2.963,2.963,0,0,0-1.059.239,4.482,4.482,0,0,0-1.537,1.739c-1.711,2.521-4.581,3.781-7.439,5.041a3.993,3.993,0,0,0-1.015.466c-.857.4-1.7.816-2.5,1.289-3.97,2.382-4.6,5.435-3.362,7.981h0a7.792,7.792,0,0,0,1.928,2.451,4.592,4.592,0,0,1-.113.457c-.81,2.911-3.645,5.523-3.129,8.551a5.29,5.29,0,0,0,.63,1.673h0c.841,1.522,2.234,2.836,2.769,4.487h0a4.492,4.492,0,0,1,.135.51,6.728,6.728,0,0,1-.8,4.181c-6.037,1.4-12.855,3.967-13.384,8.507-.926,7.9-3.711,29.7-3.711,29.7s-1.865,10.082,2.628,11.311c1.415.384,3.466-.117,6.408-2.1l-.158.466c-.035.1-.069.2-.1.315a92.373,92.373,0,0,0-3.081,11.815h43.353a47.539,47.539,0,0,0-1.692-7.426c-.054-.176-.107-.337-.154-.488a33.215,33.215,0,0,0,3.781,1.361,6.778,6.778,0,0,0,3.91.167h0c3.753-1.118,4.149-6.2,4.149-6.2l1.613-12.388,1.928-18.472a7.356,7.356,0,0,0,.425-2.5A10.275,10.275,0,0,0,532.428,309.685ZM499.51,298.053c.022-.214.038-.432.05-.646l.057.038a5.618,5.618,0,0,1-.044.611v.035a8.151,8.151,0,0,1-.41,1.89,12.18,12.18,0,0,0,.347-1.928Zm21.878,44.683h0a3.085,3.085,0,0,1-2.256-.192c.11.2.214.4.315.592a.089.089,0,0,1,0,.022l-.069-.038-.74-.378a18.252,18.252,0,0,1,1.456-4.329,36.066,36.066,0,0,0,1.506-3.522h0c.186-.529.34-1.015.466-1.462a50.085,50.085,0,0,0,.287,5.942C522.63,341.516,522.1,342.418,521.388,342.736Z" transform="translate(-348.315 -193.3)" fill="url(#linear-gradient-2)"/>
    <path id="Path_1634" data-name="Path 1634" d="M524.5,290.747a5.614,5.614,0,0,0-2.476,2.71c-.592,1.925.895,3.856,1.04,5.867.268,3.652-3.863,6.67-3.255,10.284.416,2.476,2.955,4.159,3.444,6.616.712,3.592-3.179,6.758-2.873,10.4a7.232,7.232,0,0,0,3.047,4.8,14.837,14.837,0,0,0,7.445,3.056c-.18-3.122-2.5-5.967-2.1-9.071.274-2.127,1.771-3.869,2.637-5.832,1.522-3.447,1.033-7.436.123-11.09s-2.231-7.269-2.3-11.027c-.041-2.268,1.024-5.6.243-7.751C528.528,287.095,526.266,289.543,524.5,290.747Z" transform="translate(-381.051 -210.575)" fill="#b0605d"/>
    <path id="Path_1635" data-name="Path 1635" d="M525.5,288.747a5.615,5.615,0,0,0-2.476,2.71c-.592,1.925.895,3.856,1.04,5.867.268,3.652-3.863,6.67-3.255,10.284.416,2.476,2.955,4.159,3.444,6.616.712,3.592-3.179,6.758-2.873,10.4a7.232,7.232,0,0,0,3.047,4.8,14.837,14.837,0,0,0,7.445,3.056c-.18-3.122-2.5-5.967-2.1-9.071.274-2.127,1.771-3.869,2.637-5.832,1.522-3.447,1.034-7.436.123-11.09s-2.231-7.269-2.3-11.027c-.041-2.268,1.024-5.6.243-7.751C529.528,285.095,527.266,287.543,525.5,288.747Z" transform="translate(-381.736 -209.205)" opacity="0.1"/>
    <path id="Path_1636" data-name="Path 1636" d="M527.275,370.38s-16.7-17.014-4.1-15.753c2.858.287,4.792-.224,6.074-1.181a6.1,6.1,0,0,0,2.246-4.5,18.709,18.709,0,0,0-1.074-7.247s17.014-13.548,13.548,3.466a29,29,0,0,0-.662,5.258c-.057,3.611,1.131,4.994,2.8,5.561,2.81.961,6.988-.384,8.891,2.728C558.466,364.394,527.275,370.38,527.275,370.38Z" transform="translate(-380.179 -243.478)" fill="#ffb9b9"/>
    <path id="Path_1637" data-name="Path 1637" d="M569.958,345.188a29.013,29.013,0,0,0-.662,5.258,12.867,12.867,0,0,1-1.383.394,13.573,13.573,0,0,1-10.429-1.89,18.709,18.709,0,0,0-1.074-7.247S573.423,328.175,569.958,345.188Z" transform="translate(-406.164 -243.491)" opacity="0.05"/>
    <path id="Path_1638" data-name="Path 1638" d="M567.506,308.44a13.548,13.548,0,0,1-27.1,0c0-.252,0-.5.022-.753a13.548,13.548,0,0,1,27.074.753Z" transform="translate(-395.205 -214.935)" fill="#ffb9b9"/>
    <path id="Path_1639" data-name="Path 1639" d="M527.275,407.035s-16.7-17.014-4.1-15.753c2.858.287,4.792-.224,6.074-1.181-2.423,4.045-5.183,11.311,7.158,10.633,11.3-.63,11.1-5.129,9.7-8.085,2.81.961,6.988-.384,8.891,2.728C558.466,401.048,527.275,407.035,527.275,407.035Z" transform="translate(-380.179 -280.133)" opacity="0.05"/>
    <path id="Path_1640" data-name="Path 1640" d="M535.7,402.782a4.281,4.281,0,0,1-.293.671l-4.282,3.267-.545.419h0l-7.143,5.451s.655,1.147-.28,4.505a30.361,30.361,0,0,1-1.925,4.947,18.421,18.421,0,0,0-1.424,4.291.469.469,0,0,1,0,.066c-.054.274-.1.545-.139.813a23,23,0,0,0,.23,8.056,1.062,1.062,0,0,0,.022.107c.151.718.293,1.207.35,1.389l.028.085s.151.4.378,1.109l.019.063a47.986,47.986,0,0,1,1.783,7.672H480.192a93.494,93.494,0,0,1,3.072-11.85l.154-.46c-.258.176-.51.343-.753.495-2.93,1.84-4.874,2.032-6.15,1.323-3.551-1.975-1.919-10.955-1.919-10.955s2.719-21.629,3.623-29.459c.52-4.5,7.174-7.051,13.066-8.437a69.691,69.691,0,0,1,9.083-1.481h.063s-.088.107-.236.315l-.019.025c-.11.145-.252.331-.41.558h0a21.713,21.713,0,0,0-2.574,4.6h0c-.977,2.571-1.144,5.378,1.714,6.805,1.44.721,3.645,1.093,6.9.914,5.025-.277,7.779-1.326,9.162-2.662a3.759,3.759,0,0,0,1.137-2.051h0c.362-1.916-.8-3.932-1.613-5.06h0a10.97,10.97,0,0,0-.718-.895h0l8.261.589a16.421,16.421,0,0,1,10.684,4.924c.2.2.384.406.567.63C536.894,397.753,536.22,401.345,535.7,402.782Z" transform="translate(-349.87 -276.55)" fill="#ffd6ef"/>
    <path id="Path_1641" data-name="Path 1641" d="M508.721,439.85s.63,5.041-.63,6.616-1.575,8.822,0,13.233Z" transform="translate(-372.338 -314.208)" opacity="0.05"/>
    <rect id="Rectangle_27" data-name="Rectangle 27" width="21.424" height="8.822" rx="3.75" transform="translate(137.959 136.351)" fill="#cdd0db"/>
    <rect id="Rectangle_28" data-name="Rectangle 28" width="21.424" height="8.822" rx="3.75" transform="translate(137.959 136.351)" opacity="0.05"/>
    <rect id="Rectangle_29" data-name="Rectangle 29" width="21.424" height="8.822" rx="3.75" transform="translate(137.959 136.666)" fill="#cdd0db"/>
    <circle id="Ellipse_1236" data-name="Ellipse 1236" cx="0.945" cy="0.945" r="0.945" transform="translate(153.87 139.974)" fill="#9da7c0"/>
    <path id="Path_1642" data-name="Path 1642" d="M487.935,494.706a6.128,6.128,0,0,1,3.56-3.749,5.543,5.543,0,0,0,3.056-2.744c1.241-2.75,3.447-5.586,9.118-3.7s-1.575,3.151-1.575,3.151,12.918-1.89,7.877,1.89a48.256,48.256,0,0,1-11.342,5.986l-3.1,3.286a4.642,4.642,0,0,1-6.931-.139A4.026,4.026,0,0,1,487.935,494.706Z" transform="translate(-359.094 -344.382)" opacity="0.05"/>
    <path id="Path_1643" data-name="Path 1643" d="M486.935,492.706a6.128,6.128,0,0,1,3.56-3.749,5.543,5.543,0,0,0,3.056-2.744c1.241-2.751,3.447-5.586,9.118-3.7s-1.575,3.151-1.575,3.151,12.918-1.89,7.877,1.89a48.253,48.253,0,0,1-11.342,5.986l-3.1,3.286a4.642,4.642,0,0,1-6.931-.139A4.026,4.026,0,0,1,486.935,492.706Z" transform="translate(-358.409 -343.012)" fill="#ffb9b9"/>
    <path id="Path_1644" data-name="Path 1644" d="M581.378,503.154l-2.205,5.356-2.836-2.076-7.877-5.8-5.356-3.466c-7.562-5.671,0-6.616,0-6.616-2.836-1.26,0-2.521,0-2.521,10.082-2.205,8.192,5.986,8.192,5.986l6.386,3.311,2.12,1.1Z" transform="translate(-408.447 -346.95)" opacity="0.05"/>
    <path id="Path_1645" data-name="Path 1645" d="M583.378,501.154l-2.205,5.356-2.836-2.076-7.877-5.8-5.356-3.466c-7.562-5.671,0-6.616,0-6.616-2.836-1.26,0-2.521,0-2.521,10.082-2.205,8.192,5.986,8.192,5.986l6.386,3.311,2.12,1.1Z" transform="translate(-409.817 -345.58)" fill="#ffb9b9"/>
    <path id="Path_1646" data-name="Path 1646" d="M619.451,522.186l-2.206,5.356-2.836-2.076c2.555.091,5.573-1.144,1.333-9.105l2.12,1.1Z" transform="translate(-445.89 -366.612)" opacity="0.05"/>
    <path id="Path_1647" data-name="Path 1647" d="M627,433.85l.608,2.48-1.868,18.315-1.576,12.288s-.63,8.192-7.877,5.986-7.877-4.411-7.877-4.411,10.4,3.466,3.781-8.822c0,0,3.781,1.89,3.151-3.151s0-13.863,0-13.863Z" transform="translate(-441.78 -310.098)" fill="#ffd6ef"/>
    <path id="Path_1648" data-name="Path 1648" d="M567.519,308.44a13.548,13.548,0,0,1-10.553,13.214,6.87,6.87,0,0,1-.443-3.942c.63-2.574,3.611-4.452,3.28-7.083a1.746,1.746,0,0,0-.315-.825c-.665-.876-2.02-.441-3.1-.224a5.893,5.893,0,0,1-6.591-4.064,9.209,9.209,0,0,1-9.37,2.171,13.548,13.548,0,0,1,27.074.753Z" transform="translate(-395.219 -214.935)" opacity="0.05"/>
    <path id="Path_1649" data-name="Path 1649" d="M537.647,285.43a5.885,5.885,0,0,0,6.588,4.061c1.077-.214,2.432-.649,3.1.227a1.7,1.7,0,0,1,.3.822c.334,2.634-2.637,4.509-3.277,7.086-.658,2.653,1.26,5.214,1.686,7.914a29.9,29.9,0,0,1,0,4.477,5.428,5.428,0,0,0,1.462,4.1c1.109,1,3.151,1.014,3.9-.284,3.544,1.875,2.13,7.681,4.82,10.652,1.484,1.638,3.926,2.032,6.128,1.824a2.583,2.583,0,0,0,1.44-.466,2.52,2.52,0,0,0,.706-1.323,10.747,10.747,0,0,0-.274-6.374,6.659,6.659,0,0,1-.728-3A4.431,4.431,0,0,1,564.585,313c1.692-2.1,4-4.127,3.986-6.824s-2.354-4.726-3.226-7.247c-1.188-3.444.46-7.133,1.137-10.712a20.318,20.318,0,0,0-4.288-16.541,5.685,5.685,0,0,0-2.521-1.95c-1.553-.5-3.207.2-4.83.4-5.356.671-10.211-4.011-15.586-3.592a2.863,2.863,0,0,0-1.034.236,4.438,4.438,0,0,0-1.5,1.727c-2.372,3.544-7.035,4.556-10.69,6.755C515.371,281.668,529.48,293.288,537.647,285.43Z" transform="translate(-382.731 -195.478)" fill="#b0605d"/>
    <path id="Path_1650" data-name="Path 1650" d="M775.173,665.337s-4.562-23.113,4.833-38.955a35.7,35.7,0,0,0,4.924-22.036,60.044,60.044,0,0,0-2.205-10.756" transform="translate(-555.243 -419.51)" fill="none" stroke="#535461" stroke-miterlimit="10" stroke-width="2"/>
    <path id="Path_1651" data-name="Path 1651" d="M798.427,549.882c-.252,2.757-5.986,10.3-5.986,10.3s-4.26-8.456-4-11.216a5.015,5.015,0,1,1,9.989.917Z" transform="translate(-565.078 -385.821)" fill="#5c3cba"/>
    <path id="Path_1652" data-name="Path 1652" d="M818.838,595.408c-1.711,2.177-10.618,5.394-10.618,5.394s1.021-9.414,2.732-11.591a5.016,5.016,0,0,1,7.877,6.2Z" transform="translate(-578.637 -415.313)" fill="#5c3cba"/>
    <path id="Path_1653" data-name="Path 1653" d="M807.317,674.39c-2.577,1.014-11.888-.706-11.888-.706s5.633-7.612,8.211-8.627a5.016,5.016,0,1,1,3.677,9.333Z" transform="translate(-569.877 -468.22)" fill="#5c3cba"/>
    <path id="Path_1654" data-name="Path 1654" d="M786.707,736.343c-2.369,1.437-11.837,1.314-11.837,1.314s4.266-8.453,6.635-9.89a5.016,5.016,0,1,1,5.2,8.577Z" transform="translate(-555.794 -510.913)" fill="#5c3cba"/>
    <path id="Path_1655" data-name="Path 1655" d="M772.156,610.443c1.8,2.1,10.835,4.94,10.835,4.94s-1.418-9.364-3.217-11.465a5.016,5.016,0,1,0-7.619,6.525Z" transform="translate(-553.109 -425.383)" fill="#5c3cba"/>
    <path id="Path_1656" data-name="Path 1656" d="M746.322,680.078c2.347,1.468,11.818,1.471,11.818,1.471s-4.153-8.507-6.5-9.978a5.016,5.016,0,1,0-5.315,8.507Z" transform="translate(-534.625 -472.399)" fill="#5c3cba"/>
    <path id="Path_1657" data-name="Path 1657" d="M734.686,754.1c2.067,1.843,11.4,3.45,11.4,3.45s-2.656-9.09-4.726-10.933a5.016,5.016,0,1,0-6.677,7.487Z" transform="translate(-527.119 -523.448)" fill="#5c3cba"/>
    <path id="Path_1658" data-name="Path 1658" d="M332.169,172.848A11.928,11.928,0,0,0,320.24,160.92H255.248a11.928,11.928,0,0,0,0,23.857l54.34-.1,12.5,10.9V184.616A11.919,11.919,0,0,0,332.169,172.848Z" transform="translate(-191.718 -123.159)" fill="#5c3cba"/>
    <circle id="Ellipse_1237" data-name="Ellipse 1237" cx="4.115" cy="4.115" r="4.115" transform="translate(61.476 45.984)" fill="#fff" opacity="0.2"/>
    <circle id="Ellipse_1238" data-name="Ellipse 1238" cx="4.115" cy="4.115" r="4.115" transform="translate(75.459 45.984)" fill="#fff" opacity="0.2"/>
    <circle id="Ellipse_1239" data-name="Ellipse 1239" cx="4.115" cy="4.115" r="4.115" transform="translate(89.445 45.984)" fill="#fff" opacity="0.2"/>
    <rect id="Rectangle_30" data-name="Rectangle 30" width="32.767" height="9.767" transform="translate(118.399 185.527)" fill="#5c3cba"/>
    <rect id="Rectangle_31" data-name="Rectangle 31" width="32.767" height="9.767" transform="translate(162.194 185.527)" fill="#5c3cba" opacity="0.1"/>
  </g>
</svg>
