<svg xmlns="http://www.w3.org/2000/svg" width="328" height="272.291" viewBox="0 0 328 272.291">
  <g id="undraw_verified_tw20" transform="translate(0 0)">
    <ellipse id="Ellipse_1240" data-name="Ellipse 1240" cx="164" cy="9.462" rx="164" ry="9.462" transform="translate(0 253.368)" fill="#e6e6e6"/>
    <path id="Path_1659" data-name="Path 1659" d="M813.439,335.14s-4.889-1.746-8.032,5.239a137.767,137.767,0,0,1-8.032,14.668l2.794.7s.7-4.889,2.445-5.588l-.7,6.286s20.954,7.334,30.383-.7l-.349-2.445s1.4.349,1.4,2.445l1.048-1.048a18.767,18.767,0,0,0-4.191-4.889c-2.063-1.834-2.772-5.323-3.016-7.5a9.079,9.079,0,0,0-2.091-4.945C823.007,334.939,819.2,332.366,813.439,335.14Z" transform="translate(-555.563 -243.548)" fill="#2f2e41"/>
    <path id="Path_1660" data-name="Path 1660" d="M581.286,381.766l4.572,5.819,2.909-3.325-2.494-4.156Z" transform="translate(-352.125 -230.255)" fill="#fbbebe"/>
    <path id="Path_1661" data-name="Path 1661" d="M574.514,611l-1.662,8.728,4.156,2.078,2.91-2.078V611Z" transform="translate(-347.016 -370.124)" fill="#fbbebe"/>
    <path id="Path_1662" data-name="Path 1662" d="M642.567,611l1.663,8.728-4.156,2.078-2.91-2.078V611Z" transform="translate(-385.974 -370.124)" fill="#fbbebe"/>
    <path id="Path_1663" data-name="Path 1663" d="M585.929,411.733,580.11,453.3,571.8,491.12l9.976,1.247,7.9-35.329,9.975-29.926L598.4,462.857l-2.078,29.511H603.8l5.4-39.9L615.18,422.8l-.156-11.067Z" transform="translate(-346.377 -249.415)" fill="#2f2e41"/>
    <path id="Path_1664" data-name="Path 1664" d="M747.568,733.232s-2.078-2.494-3.325-1.247a52.557,52.557,0,0,0-4.156,6.234s-6.65,3.741-1.247,4.572,7.066,0,7.066-.416a6.093,6.093,0,0,1,.831-1.663l2.078.416,2.91-.831s1.247-7.658,0-7.362S747.984,734.479,747.568,733.232Z" transform="translate(-518.823 -484.461)" fill="#2f2e41"/>
    <path id="Path_1665" data-name="Path 1665" d="M824.47,733.232s2.078-2.494,3.325-1.247a52.536,52.536,0,0,1,4.157,6.234s6.65,3.741,1.247,4.572-7.066,0-7.066-.416a6.093,6.093,0,0,0-.831-1.663l-2.078.416-2.909-.831s-1.247-7.658,0-7.362S824.054,734.479,824.47,733.232Z" transform="translate(-569.123 -484.461)" fill="#2f2e41"/>
    <circle id="Ellipse_1241" data-name="Ellipse 1241" cx="8.313" cy="8.313" r="8.313" transform="translate(250.982 96.439)" fill="#fbbebe"/>
    <path id="Path_1666" data-name="Path 1666" d="M836.8,383.546s-.831,7.066-.416,8.729,1.247,4.156,1.247,4.156l-13.3-2.494s3.741-7.9,2.91-9.144S836.8,383.546,836.8,383.546Z" transform="translate(-571.891 -273.599)" fill="#fbbebe"/>
    <path id="Path_1667" data-name="Path 1667" d="M825.909,404.378l-13.716-2.909-7.9,48.214a18.007,18.007,0,0,1,10.807.416c5.819,2.078,13.716,0,13.716,0l-1.663-45.3Z" transform="translate(-559.756 -284.456)" fill="#5c3cba"/>
    <path id="Path_1668" data-name="Path 1668" d="M793.271,391.783l-4.872,2.572-6.235,1.247-6.65,15.794.831,11.222s-7.066,12.885-7.9,19.951c0,0,.831,10.807,14.547,10.391l9.144-25.354s3.741-19.12,0-24.523C792.14,403.083,794.818,392.952,793.271,391.783Z" transform="translate(-538.041 -278.589)" fill="#2f2e41"/>
    <path id="Path_1669" data-name="Path 1669" d="M771.86,401.116l-1.346-.23-1.148.23a13.425,13.425,0,0,0-6.235,3.325c-3.325,2.909-14.547,12.054-15.379,14.547a13.964,13.964,0,0,0,.831,9.144,48.461,48.461,0,0,0,3.741,5.819l1.247,2.909,7.066-2.078s-4.572-8.728-4.156-12.469l8.313-6.65Z" transform="translate(-525.242 -284.103)" fill="#2f2e41"/>
    <path id="Path_1670" data-name="Path 1670" d="M851.587,396.549l6.279,7.758,3.325,4.156L857.036,422.6l-2.078,12.054s4.988,19.119.831,24.938c0,0-2.494,2.91-3.325-.415s-.831-19.12-.831-19.12-3.325-20.782-1.662-26.185S849.88,397.519,851.587,396.549Z" transform="translate(-587.142 -281.476)" fill="#2f2e41"/>
    <path id="Path_1671" data-name="Path 1671" d="M869.559,548.433v4.156s-.831,13.716,3.325,12.054,1.247-12.054,1.247-12.054l-.415-4.572Z" transform="translate(-599.249 -373.231)" fill="#fbbebe"/>
    <path id="Path_1672" data-name="Path 1672" d="M817.723,355.148a24.454,24.454,0,0,0,7.413-8.058s5.8,6.446,9.347,6.769.322-7.735.322-7.735l-6.446-1.612-6.124.645-4.835,3.223Z" transform="translate(-567.694 -249.953)" fill="#2f2e41"/>
    <path id="Path_1673" data-name="Path 1673" d="M679.692,318.954l3.325,1.247.416,4.156,1.662,25.354-.831,19.119-6.234.416-2.078-21.2-.831-23.276Z" transform="translate(-408.967 -193.213)" fill="#2f2e41"/>
    <path id="Path_1674" data-name="Path 1674" d="M412.624,167.113H411.18V127.552a22.9,22.9,0,0,0-22.9-22.9H304.468a22.9,22.9,0,0,0-22.9,22.9V344.588a22.9,22.9,0,0,0,22.9,22.9h83.816a22.9,22.9,0,0,0,22.9-22.9V195.274h1.444Z" transform="translate(-243.105 -104.655)" fill="#3f3d56"/>
    <path id="Path_1675" data-name="Path 1675" d="M416.016,136.865V353.581a17.1,17.1,0,0,1-17.1,17.1H314.7a17.1,17.1,0,0,1-17.1-17.1V136.865a17.1,17.1,0,0,1,17.1-17.1h10.217a8.128,8.128,0,0,0,7.523,11.192h48.017a8.128,8.128,0,0,0,7.523-11.192h10.939a17.1,17.1,0,0,1,17.1,17.1Z" transform="translate(-252.814 -113.809)" fill="#fff"/>
    <path id="Path_1676" data-name="Path 1676" d="M209.564,421.533h-1.771l.591-34.6h.59Z" transform="translate(-125.875 -234.395)" fill="#e6e6e6"/>
    <path id="Path_1677" data-name="Path 1677" d="M382.794,410.943l2.859-4.418a66.225,66.225,0,0,0-2.933-6.866l-1.849,1.493,1.464-2.262c-1.395-2.746-2.493-4.476-2.493-4.476s-5.734,9.035-7.649,18.6l3.669,5.67L371.8,415.4a26.813,26.813,0,0,0-.223,3.36c0,11.33,3.7,20.514,8.265,20.514s8.265-9.185,8.265-20.514a35.281,35.281,0,0,0-1.891-10.586Z" transform="translate(-297.628 -280.182)" fill="#e6e6e6"/>
    <path id="Path_1678" data-name="Path 1678" d="M326.523,421.533h-1.771l.591-34.6h.59Z" transform="translate(-196.725 -234.395)" fill="#e6e6e6"/>
    <path id="Path_1679" data-name="Path 1679" d="M499.753,410.943l2.859-4.418a66.225,66.225,0,0,0-2.933-6.866l-1.849,1.493,1.464-2.262c-1.395-2.746-2.493-4.476-2.493-4.476s-5.734,9.035-7.649,18.6l3.669,5.67-4.061-3.28a26.784,26.784,0,0,0-.223,3.36c0,11.33,3.7,20.514,8.265,20.514s8.265-9.185,8.265-20.514a35.283,35.283,0,0,0-1.891-10.586Z" transform="translate(-368.479 -280.182)" fill="#e6e6e6"/>
    <circle id="Ellipse_1242" data-name="Ellipse 1242" cx="16.274" cy="16.274" r="16.274" transform="translate(66.068 39.911)" fill="#e6e6e6"/>
    <path id="Path_1680" data-name="Path 1680" d="M260.432,352.305H256.78L258,280.971h1.217Z" transform="translate(-155.549 -170.204)" fill="#e6e6e6"/>
    <path id="Path_1681" data-name="Path 1681" d="M422.225,219.336l5.895-9.11a136.588,136.588,0,0,0-6.048-14.157l-3.812,3.079,3.018-4.664c-2.876-5.662-5.14-9.229-5.14-9.229s-11.822,18.63-15.772,38.355l7.565,11.691-8.374-6.764a55.26,55.26,0,0,0-.459,6.929c0,23.361,7.63,42.3,17.041,42.3s17.041-18.938,17.041-42.3a72.751,72.751,0,0,0-3.9-21.828Z" transform="translate(-314.299 -153.48)" fill="#e6e6e6"/>
    <path id="Path_1682" data-name="Path 1682" d="M414.7,554.618v48.493a17.809,17.809,0,0,1-17.809,17.809H309.176a17.81,17.81,0,0,1-17.809-17.809V559.345A83.864,83.864,0,0,1,414.7,554.617Z" transform="translate(-249.04 -362.234)" fill="#3f3d56"/>
    <circle id="Ellipse_1243" data-name="Ellipse 1243" cx="24.919" cy="24.919" r="24.919" transform="translate(79.166 190.382)" fill="#5c3cba" opacity="0.2"/>
    <circle id="Ellipse_1244" data-name="Ellipse 1244" cx="20.064" cy="20.064" r="20.064" transform="translate(84.02 195.237)" fill="#5c3cba"/>
    <path id="Path_1683" data-name="Path 1683" d="M247.218,537.275l-7.071-9.091,4.112-3.2,3.348,4.3,11.31-11.939,3.782,3.583Z" transform="translate(-145.474 -313.395)" fill="#fff"/>
  </g>
</svg>