<svg xmlns="http://www.w3.org/2000/svg" width="339.335" height="266.372" viewBox="0 0 339.335 266.372">
  <g id="Group_306" data-name="Group 306" transform="translate(-124.719 -75.763)">
    <path id="Path_1810" data-name="Path 1810" d="M765.724,403.2c-28.17-21.06-72.292-40.977-121.051-54.643-44.4-12.444-87.7-18.452-121.939-16.917l-.178-3.982c34.649-1.552,78.4,4.507,123.193,17.061,49.214,13.794,93.814,33.946,122.362,55.289Z" transform="translate(-335.42 -210.428)" fill="#3f3d56"/>
    <path id="Path_1811" data-name="Path 1811" d="M762.8,419.42a132.644,132.644,0,0,1-11.479,54.156q-.951,2.14-1.981,4.241a133.148,133.148,0,0,1-252.8-58.4q0-4.622.315-9.172.149-2.314.387-4.6A133.136,133.136,0,0,1,762.8,419.42Z" transform="translate(-335.42 -210.428)" fill="#f2f2f2"/>
    <path id="Path_1812" data-name="Path 1812" d="M751.32,473.576q-.951,2.14-1.981,4.241-5.835.634-12.284.921c-3.559.159-7.222.239-10.965.239-32.692,0-72.037-6.035-112.231-17.3-44.794-12.556-85.318-30.117-114.112-49.453q-1.471-.986-2.89-1.977.149-2.314.387-4.6,2.29,1.632,4.723,3.268c28.455,19.1,68.574,36.479,112.968,48.923,39.843,11.168,78.817,17.151,111.135,17.151q5.542,0,10.806-.235Q744.54,474.409,751.32,473.576Z" transform="translate(-335.42 -210.428)" opacity="0.1"/>
    <path id="Path_1813" data-name="Path 1813" d="M726.09,475.789c-32.691,0-72.039-6.035-112.231-17.3-44.793-12.555-85.32-30.117-114.114-49.452-29.4-19.739-43.18-39.188-38.813-54.766s26.251-25.03,61.623-26.615l.178,3.982c-16.518.74-29.98,3.2-40.011,7.3-10.007,4.092-16.047,9.613-17.952,16.412s.385,14.654,6.807,23.351c6.438,8.718,16.663,17.812,30.39,27.03,28.452,19.105,68.572,36.48,112.968,48.924C654.779,465.819,693.75,471.8,726.07,471.8q5.539,0,10.8-.236c16.518-.74,29.98-3.2,40.012-7.3,10.007-4.092,16.047-9.613,17.952-16.411,3.421-12.207-6.918-28.068-29.114-44.661l2.387-3.192c11.422,8.539,19.877,16.956,25.13,25.016,5.632,8.642,7.46,16.687,5.435,23.913-4.366,15.578-26.251,25.029-61.623,26.615C733.493,475.71,729.832,475.789,726.09,475.789Z" transform="translate(-335.42 -210.428)" fill="#3f3d56"/>
    <circle id="Ellipse_1255" data-name="Ellipse 1255" cx="11.187" cy="11.187" r="11.187" transform="translate(199.121 175.431)" opacity="0.1"/>
    <circle id="Ellipse_1256" data-name="Ellipse 1256" cx="11.187" cy="11.187" r="11.187" transform="translate(322.689 287.811)" opacity="0.1"/>
    <circle id="Ellipse_1257" data-name="Ellipse 1257" cx="11.187" cy="11.187" r="11.187" transform="translate(285.059 192.72)" opacity="0.1"/>
    <circle id="Ellipse_1258" data-name="Ellipse 1258" cx="11.187" cy="11.187" r="11.187" transform="translate(204.715 254.25)" opacity="0.1"/>
    <circle id="Ellipse_1259" data-name="Ellipse 1259" cx="11.187" cy="11.187" r="11.187" transform="translate(345.064 132.716)" opacity="0.1"/>
    <circle id="Ellipse_1260" data-name="Ellipse 1260" cx="11.187" cy="11.187" r="11.187" transform="translate(382.185 208.484)" opacity="0.1"/>
    <circle id="Ellipse_1261" data-name="Ellipse 1261" cx="14.747" cy="14.747" r="14.747" transform="translate(341.504 82.373)" fill="#fff"/>
    <path id="Path_1817" data-name="Path 1817" d="M691.67,286.191a20.849,20.849,0,0,0-20.849,20.849c0,11.515,20.849,49.325,20.849,49.325s20.849-37.811,20.849-49.325A20.849,20.849,0,0,0,691.67,286.191Zm0,31.019a9.662,9.662,0,1,1,9.662-9.662,9.662,9.662,0,0,1-9.662,9.662Z" transform="translate(-335.42 -210.428)" fill="#5C3DA5"/>
    <circle id="Ellipse_1262" data-name="Ellipse 1262" cx="14.747" cy="14.747" r="14.747" transform="translate(195.504 122.373)" fill="#fff"/>
    <path id="Path_1818" data-name="Path 1818" d="M545.67,326.191a20.849,20.849,0,0,0-20.849,20.849c0,11.515,20.849,49.325,20.849,49.325s20.849-37.811,20.849-49.325A20.849,20.849,0,0,0,545.67,326.191Zm0,31.019a9.662,9.662,0,1,1,9.662-9.662,9.662,9.662,0,0,1-9.662,9.662Z" transform="translate(-335.42 -210.428)" fill="#3f3d56"/>
    <circle id="Ellipse_1263" data-name="Ellipse 1263" cx="14.747" cy="14.747" r="14.747" transform="translate(380.504 156.373)" fill="#fff"/>
    <path id="Path_1819" data-name="Path 1819" d="M730.67,360.191a20.849,20.849,0,0,0-20.849,20.849c0,11.514,20.849,49.325,20.849,49.325s20.849-37.811,20.849-49.325a20.849,20.849,0,0,0-20.849-20.849Zm0,31.019a9.662,9.662,0,1,1,9.662-9.662,9.662,9.662,0,0,1-9.662,9.662Z" transform="translate(-335.42 -210.428)" fill="#ccc"/>
    <circle id="Ellipse_1264" data-name="Ellipse 1264" cx="14.747" cy="14.747" r="14.747" transform="translate(319.13 234.94)" fill="#fff"/>
    <path id="Path_1820" data-name="Path 1820" d="M480.67,434.191a20.849,20.849,0,0,0-20.849,20.849c0,11.515,20.849,49.326,20.849,49.326s20.849-37.811,20.849-49.325a20.849,20.849,0,0,0-20.849-20.849Zm0,31.019a9.662,9.662,0,1,1,9.662-9.662,9.662,9.662,0,0,1-9.662,9.662Z" transform="translate(-146.794 -205.862)" fill="#5C3DA5"/>
  </g>
</svg>
